<svg width="1024px" height="1024px" viewBox="0 0 1024 1024" xmlns="http://www.w3.org/2000/svg">
   <circle cx="512" cy="512" r="512" style="fill:#0052ff"/>
   <path d="M516.3 188.4c180.3 0 326.4 146.1 326.4 326.4 0 180.3-146.1 326.4-326.4 326.4-180.3 0-326.4-146.1-326.4-326.4 0-180.3 146.1-326.4 326.4-326.4zm0 577.9c138.6 0 251.4-112.8 251.4-251.4S654.9 263.4 516.3 263.4 264.9 376.3 264.9 514.9s112.9 251.4 251.4 251.4zm-71.8-260.4c0 14.5 10.7 21.3 27.7 23.6l44.3 5.6c44.8 5.7 79.1 28.6 79.1 75.3 0 47.7-39.3 80.5-95.9 84.4v40.1h-39.5v-40.3c-52.7-4.7-89.3-32.8-92.6-77.9h55.3c3.1 22.6 19.9 36.3 52.1 36.3 30.7 0 47.7-12.7 47.7-30.9 0-14.8-10.7-22.1-29.5-24.5l-44.3-5.5c-47.1-5.8-78.1-30.1-78.1-75.3 0-46.3 38.4-78.1 91.7-82.5v-40.3h39.5V452c53.4 4.9 84.4 34.2 87.5 75.3h-53.6c-2.5-20.6-18.2-35.6-46.9-35.6-28.6 0-45.3 12-45.3 30.4z" style="fill:#fff"/>
</svg>

